# xmcd
#
# Track frame offsets: 
#        150
#        25040
#        52315
#        80602
#        109162
#        140263
#        174618
#        204668
#        236597
#        262027
#        294026
#
# Disc length: 4387 seconds
#
# Revision: 2
# Processed by: cddbd v1.5.2PL0 Copyright (c) Steve Scherf et al.
# Submitted via: ExactAudioCopy v0.99pb4
#
DISCID=9c11210b
DTITLE=Various Artist - Hardtrancer Vol.1
DYEAR=1997
DGENRE=Trance
TTITLE0=Proxyma - Other Worlds (Hardtrance Mix)
TTITLE1=DJ Crack - Space People (Gary D. and DJ Yanny Remix)
TTITLE2=Nostrum - Blow Back (Original Mix)
TTITLE3=Mass In Orbit - Overdrive (Hubble Mix)
TTITLE4=Code 20 - Progressive Attack (Gary D.'s TTF Remix)
TTITLE5=Code 25 - Organix (Orbit Mix)
TTITLE6=X-Ite - Sometimes I Dream (Trancefloor Mix)
TTITLE7=Molecular - Relax (Hypnotic Mix)
TTITLE8=DJ Philip - Too Deep (Original Mix)
TTITLE9=Colet and LSP - Story of Love (Trance Mix)
TTITLE10=Ultimate - Too Strong (Cosmic Mix)
EXTD=
EXTT0=
EXTT1=
EXTT2=
EXTT3=
EXTT4=
EXTT5=
EXTT6=
EXTT7=
EXTT8=
EXTT9=
EXTT10=
PLAYORDER=
